<svg viewBox="0 0 459 536" xmlns="http://www.w3.org/2000/svg" fill-rule="evenodd" clip-rule="evenodd" stroke-linejoin="round" stroke-miterlimit="2"><path d="M408 0H51C22.95 0 0 22.95 0 51v357c0 28.05 22.95 51 51 51h102l76.5 76.5L306 459h102c28.05 0 51-22.95 51-51V51c0-28.05-22.95-51-51-51zM255 408h-51v-51h51v51zm53.55-196.35L285.6 234.6C265.201 252.45 255 267.75 255 306h-51v-12.75c0-28.05 10.2-53.55 30.6-71.4l30.601-33.15c10.2-7.65 15.3-20.4 15.3-35.7 0-28.05-22.95-51-51-51s-51 22.95-51 51h-51c0-56.1 45.9-102 102-102s102 45.9 102 102c-.001 22.95-10.201 43.35-22.951 58.65z" fill="#69c350" fill-rule="nonzero"/></svg>